# xmcd CD database file
#
# Track frame offsets:
#	150
#	22725
#	54029
#	61381
#	96655
#	131314
#	136731
#	172117
#	218959
#	232832
#
# Disc length: 3452 seconds
#
# Revision: 0
# Processed by: cddbd v1.5.2PL0 Copyright (c) Steve Scherf et al.
# Submitted via: CDex 1.70beta2
#
DISCID=7e0d7a0a
DTITLE=Rez Abbasi - Modern Memory
DYEAR=1996
DGENRE=Jazz
TTITLE0=Serie de arco
TTITLE1=Next Year
TTITLE2=Modern Memory 1
TTITLE3=Depiction
TTITLE4=Every Sunday
TTITLE5=Modern Memory 2
TTITLE6=Third Ear
TTITLE7=Rise Above
TTITLE8=Modern Memory 3
TTITLE9=Four In One
EXTD=YEAR: 1996
EXTT0=
EXTT1=
EXTT2=
EXTT3=
EXTT4=
EXTT5=
EXTT6=
EXTT7=
EXTT8=
EXTT9=
PLAYORDER=
